<svg xmlns="http://www.w3.org/2000/svg" viewBox="0 0 21.49 23.33"><defs><style>.cls-1{fill:#fff;}</style></defs><title>Asset 1</title><g id="Layer_2" data-name="Layer 2"><g id="Layer_1-2" data-name="Layer 1"><g id="Symbol_174_1" data-name="Symbol 174 1"><path id="Path_1048" data-name="Path 1048" class="cls-1" d="M21.49,8.8a14,14,0,0,1-2,6.54,35.71,35.71,0,0,1-6.14,7.75.92.92,0,0,1-1.24,0l-.53-.49c1.77-1.77,7.69-8.1,7.69-13.81A8.81,8.81,0,0,0,11.56.08C11.94,0,12.94,0,13.32,0,18.17,0,21.49,3.95,21.49,8.8Zm-3.89,0c0,6.57-7.84,14-8.17,14.28a.92.92,0,0,1-1.24,0C7.86,22.81,0,15.79,0,8.8a8.8,8.8,0,1,1,17.6,0ZM13,8.8A4.2,4.2,0,1,0,8.8,13,4.2,4.2,0,0,0,13,8.8Z"/></g></g></g></svg>